<?xml version="1.0" standalone="no"?>
<!DOCTYPE svg PUBLIC "-//W3C//DTD SVG 20010904//EN"
 "http://www.w3.org/TR/2001/REC-SVG-20010904/DTD/svg10.dtd">
<svg version="1.0" xmlns="http://www.w3.org/2000/svg"
 width="316.000000pt" height="316.000000pt" viewBox="0 0 316.000000 316.000000"
 preserveAspectRatio="xMidYMid meet">
<metadata>
Created by potrace 1.11, written by Peter Selinger 2001-2013
</metadata>
<g transform="translate(0.000000,316.000000) scale(0.100000,-0.100000)"
fill="#000000" stroke="none">
<path d="M0 1580 l0 -1580 1580 0 1580 0 0 1580 0 1580 -1580 0 -1580 0 0
-1580z m1871 1247 c485 -126 830 -487 935 -979 24 -113 24 -370 0 -483 -137
-634 -708 -1063 -1337 -1004 -567 53 -1020 466 -1124 1024 -26 138 -17 406 19
537 123 459 494 817 946 912 115 24 124 25 300 21 137 -3 182 -7 261 -28z"/>
<path d="M1436 2430 c-103 -19 -237 -76 -336 -143 -107 -73 -225 -211 -276
-320 -34 -76 -84 -277 -84 -341 0 -73 24 -212 48 -274 47 -121 192 -268 312
-313 82 -31 197 -51 255 -44 245 30 422 180 433 367 5 81 -8 122 -54 177 -118
138 -346 110 -399 -48 -16 -51 -15 -74 12 -148 22 -61 11 -83 -41 -83 -109 0
-227 143 -256 313 -39 221 173 462 438 499 103 14 237 -1 324 -36 179 -73 332
-218 391 -370 24 -65 47 -202 47 -286 0 -120 -50 -304 -106 -393 -62 -98 -76
-128 -70 -153 l6 -24 58 29 c148 75 277 253 322 444 54 234 26 437 -97 687
-51 104 -66 124 -152 210 -106 106 -195 160 -364 219 -77 27 -105 31 -225 35
-75 3 -159 1 -186 -4z"/>
</g>
</svg>
